<?xml version="1.0" encoding="utf-8"?>
<!-- Generator: Adobe Illustrator 23.0.1, SVG Export Plug-In . SVG Version: 6.00 Build 0)  -->
<svg version="1.1" id="Layer_1" xmlns="http://www.w3.org/2000/svg" xmlns:xlink="http://www.w3.org/1999/xlink" x="0px" y="0px"
	 viewBox="0 0 100 80" style="enable-background:new 0 0 100 80;" xml:space="preserve">
<style type="text/css">
	.st0{fill:#224099;}
</style>
<path class="st0" d="M78.8,29.3L78.8,29.3v-0.1C78.7,13.1,65.8,0,49.9,0C34,0,21,13.1,21,29.3c0,16.1,13,29.3,28.9,29.3
	c7.3,0,14.3-2.8,19.6-7.8c1.1-1,1.1-2.7,0.1-3.8c-1-1.1-2.6-1.1-3.7-0.2c0,0,0,0-0.1,0.1c-4.3,4.1-10.1,6.4-16.1,6.4
	c-7,0-13.2-3.1-17.6-8l12.3-19.8v9.2c0,4.4,1.7,5.8,3.1,6.2c1.4,0.4,3.6,0.1,6-3.6l6.8-11c0.2-0.3,0.4-0.7,0.6-0.9v5.7
	c0,4.1,1.6,7.3,4.5,8.9c2.5,1.5,5.8,1.3,8.4-0.3C77.3,37.6,79,33.8,78.8,29.3L78.8,29.3z M71.3,35.1c-1.1,0.6-2.3,0.8-3.2,0.2
	c-1.2-0.7-1.9-2.3-1.9-4.4v-6.4c0-3.1-1.2-5.3-3.3-5.9c-3.5-1-6.1,3.3-7.1,4.9l-6.2,9.9V21.2c-0.1-2.8-1-4.5-2.7-5
	c-1.2-0.3-2.9-0.2-4.5,2.4L28.6,40.8c-1.8-3.5-2.8-7.4-2.8-11.4c0-13.4,10.8-24.3,24-24.3s24,10.9,24,24.3v0v-0.1v0.1
	C73.8,32,72.9,34.1,71.3,35.1z"/>
<g>
	<path class="st0" d="M18.7,66.8c-0.6,0-1.1,0.5-1.1,1.2c0,0.6,0.5,1.1,1.1,1.2c0.6,0,1.2-0.5,1.2-1.2S19.3,66.8,18.7,66.8z"/>
	<path class="st0" d="M18.6,70.1c-0.5,0.1-0.8,0.5-0.8,1V76c0,0.5,0.3,0.9,0.8,1c0.6,0.1,1.2-0.3,1.2-1v-5
		C19.7,70.4,19.2,69.9,18.6,70.1z"/>
	<path class="st0" d="M25.2,69.8c-0.7,0-1.4,0.1-2.2,0.9c0-0.5-0.5-0.9-1-0.8c-0.3,0.1-0.6,0.4-0.6,0.8v5.3c0,0.5,0.4,1,1,1
		c0.5,0,1-0.4,1-1v-2.7c0-0.9,0.4-1.7,1.3-1.7c1.3,0,1.5,0.8,1.5,1.7v2.7c0,0.5,0.4,1,1,1c0.5,0,1-0.4,1-1v-3
		C28.2,71.4,27.3,69.8,25.2,69.8z"/>
	<path class="st0" d="M7.9,74.3c-0.2,0-0.4,0.1-0.5,0.2C6.7,75,5.9,75.4,5,75.4c-1.8,0-3.1-1.5-3.1-3.3c0-1.9,1.3-3.3,3.1-3.3
		c0.8,0,1.5,0.3,2.1,0.7c0.1,0,0.2,0.1,0.3,0.1c0.5,0,0.9-0.4,0.9-0.9c0-0.3-0.2-0.7-0.5-0.8C7,67.1,6,66.8,5,66.8
		c-2.8,0-5.1,2.3-5.1,5.2s2.3,5.2,5.1,5.2c1.2,0,2.4-0.5,3.3-1.3c0.2-0.2,0.4-0.4,0.4-0.8C8.7,74.7,8.3,74.3,7.9,74.3z"/>
	<path class="st0" d="M13,69.9c-2,0-3.7,1.6-3.7,3.6c0,2,1.7,3.7,3.7,3.7c1.9,0,3.5-1.7,3.5-3.7C16.5,71.5,14.9,69.9,13,69.9z
		 M13,75.4c-0.9,0-1.7-0.8-1.7-1.9c0-1.1,0.8-1.8,1.7-1.8c0.8,0,1.6,0.7,1.6,1.8S13.8,75.4,13,75.4z"/>
	<path class="st0" d="M90.4,69.9c-0.4,0-0.8,0.3-0.8,0.8l0,0.2c-0.9-1-2-1.1-2.3-1.1c-1.9,0-3.3,1.6-3.3,3.6c0,2,1.4,3.7,3.2,3.7
		c0.8,0,2-0.3,2.4-1.1l0,0.2c0,0.4,0.3,0.8,0.8,0.8c0.4,0,0.8-0.3,0.8-0.8v-5.6C91.1,70.3,90.8,69.9,90.4,69.9z M87.4,75.4
		c-0.9,0-1.6-0.8-1.6-1.9c0-1.1,0.7-1.8,1.6-1.8c0.9,0,1.6,0.7,1.6,1.8S88.3,75.4,87.4,75.4z"/>
	<path class="st0" d="M82.4,74.3c-0.2,0-0.4,0.1-0.5,0.2c-0.6,0.6-1.4,0.9-2.3,0.9c-1.8,0-3.1-1.5-3.1-3.3c0-1.9,1.3-3.3,3.1-3.3
		c0.8,0,1.5,0.3,2.1,0.7c0.1,0,0.2,0.1,0.3,0.1c0.5,0,0.9-0.4,0.9-0.9c0-0.3-0.2-0.7-0.5-0.8c-0.8-0.6-1.8-0.9-2.8-0.9
		c-2.8,0-5.1,2.3-5.1,5.2s2.3,5.2,5.1,5.2c1.2,0,2.4-0.5,3.3-1.3c0.2-0.2,0.4-0.4,0.4-0.8C83.3,74.7,82.9,74.3,82.4,74.3z"/>
	<path class="st0" d="M72.9,75.4h-0.3c-0.6,0-0.7-0.3-0.7-1.6v-2.1h0.8c0.4,0,0.9-0.5,0.9-1c0-0.5-0.4-1-0.9-1h-0.8v-2
		c0-0.8-0.8-1.4-1.5-0.9C70.2,67,70,67.4,70,67.7v2h-0.5c-0.5,0-1,0.6-0.8,1.3c0.1,0.4,0.5,0.7,0.9,0.7H70v2.4
		c0,2.3,0.9,2.9,2.3,2.9h0.5c0.5,0,0.9-0.4,0.9-0.9C73.7,75.7,73.3,75.4,72.9,75.4z"/>
	<path class="st0" d="M64.7,69.8c-2.4,0-3.4,1.7-3.4,3.7c0,2.5,1.7,3.6,3.7,3.6c0.8,0,1.6-0.1,2.2-0.6c0.2-0.2,0.4-0.4,0.4-0.7
		c0-0.5-0.4-0.8-0.8-0.8c-0.2,0-0.4,0.1-0.5,0.2c-0.4,0.2-0.9,0.3-1.3,0.3c-0.5,0-1.6-0.2-1.6-1.4h4c0.4,0,0.8-0.4,0.8-0.8
		C68,71.1,66.6,69.8,64.7,69.8z M63.3,72.8c0-0.8,0.9-1.1,1.4-1.1c0.5,0,1.4,0.3,1.4,1.1H63.3z"/>
	<path class="st0" d="M96.6,70c-0.7,0-1.6,0.2-2.3,0.9c0-0.5-0.4-0.9-0.9-0.8c-0.4,0.1-0.6,0.4-0.6,0.8V79c0,0.5,0.4,1,1,1
		c0.5,0,1-0.4,1-1v-2.5c0.5,0.4,1.4,0.6,1.9,0.6c1.8,0,3.2-1.7,3.2-3.6C99.9,71.6,98.5,70,96.6,70z M96.5,75.4
		c-0.9,0-1.6-0.8-1.6-1.9s0.8-1.8,1.6-1.8c0.9,0,1.6,0.7,1.6,1.8C98.1,74.5,97.4,75.4,96.5,75.4z"/>
	<path class="st0" d="M47,69.9c-0.4,0-0.8,0.3-0.8,0.8l0,0.2c-0.9-1-2-1.1-2.3-1.1c-1.9,0-3.3,1.6-3.3,3.6c0,2,1.4,3.7,3.2,3.7
		c0.8,0,2-0.3,2.4-1.1l0,0.2c0,0.4,0.3,0.8,0.8,0.8c0.4,0,0.8-0.3,0.8-0.8v-5.6C47.8,70.3,47.4,69.9,47,69.9z M44,75.4
		c-0.9,0-1.6-0.8-1.6-1.9c0-1.1,0.7-1.8,1.6-1.8s1.6,0.7,1.6,1.8S44.9,75.4,44,75.4z"/>
	<path class="st0" d="M39,66.9c-0.2,0-0.3,0.2-0.4,0.3l-3.7,4.2c-0.1,0.1-0.3,0.2-0.3,0.2c-0.1,0-0.2-0.1-0.3-0.2l-3.7-4.2
		c-0.1-0.1-0.3-0.3-0.4-0.3c-0.2,0-0.3,0.1-0.4,0.3v8.9c0,0.5,0.4,1,1,1c0.5,0,1-0.4,1-1v-4.5l2.3,2.5c0.1,0.1,0.3,0.3,0.5,0.3
		c0.2,0,0.3-0.1,0.5-0.3l2.3-2.5V76c0,0.8,0.9,1.4,1.7,0.9c0.3-0.2,0.5-0.5,0.5-0.9v-8.9C39.3,67,39.2,66.9,39,66.9z"/>
	<path class="st0" d="M59,73.3l1.8-1.9c0.1-0.1,0.1-0.3,0.1-0.4c0-0.5-0.4-0.9-0.9-0.9c-0.3,0-0.6,0.3-0.8,0.5L56.8,73V68
		c0-0.5-0.4-1-0.9-1c-0.6,0-1,0.5-1,1v7.9c0,0.5,0.4,1,1,1c0.5,0,1-0.4,1-1v-2.2l2.2,2.6c0.2,0.3,0.5,0.5,0.9,0.5c0.5,0,1-0.5,1-1
		c0-0.2-0.1-0.3-0.1-0.5L59,73.3z"/>
	<path class="st0" d="M53.1,69.8h-0.2c-0.6,0-1.2,0.2-1.9,0.9c0-0.5-0.5-1-1-0.8c-0.3,0.1-0.5,0.4-0.5,0.7v5.7c0,0.6,0.4,1.1,1,1.1
		c0.5,0,1-0.5,1-1.1v-2.9c0-0.9,0.2-1.6,1.5-1.7h0.2c0.5,0,0.9-0.5,0.9-1C54,70.2,53.6,69.8,53.1,69.8z"/>
</g>
</svg>
