<?xml version="1.0" encoding="utf-8"?>
<!-- Generator: Adobe Illustrator 23.0.1, SVG Export Plug-In . SVG Version: 6.00 Build 0)  -->
<svg version="1.1" id="Layer_1" xmlns="http://www.w3.org/2000/svg" xmlns:xlink="http://www.w3.org/1999/xlink" x="0px" y="0px"
	 viewBox="0 0 50 50" style="enable-background:new 0 0 50 50;" xml:space="preserve">
<style type="text/css">
	.st0{fill:#6F2C90;}
</style>
<path class="st0" d="M25,0C11.2,0,0,11.2,0,25s11.2,25,25,25s25-11.2,25-25S38.8,0,25,0z M16.3,19.9h-4v4H16v2.9h-3.7V33H8.9V17h7.4
	V19.9z M30,33h-4l-4.5-10.6h-0.1c0.1,0.8,0.1,1.6,0.1,2.2c0,0.7,0,1.2,0,1.7V33h-3.2V17h4l4.4,10.4h0.1c0-0.8-0.1-1.5-0.1-2.1
	s0-1.2,0-1.6V17H30V33z M38.8,33l-1.9-5l-2,5h-3.6L35,25l-3.4-8h3.6l1.7,4.8l1.6-4.8h3.6l-3.3,7.9l3.7,8.2H38.8z"/>
</svg>
