<?xml version="1.0" encoding="utf-8"?>
<!-- Generator: Adobe Illustrator 23.0.1, SVG Export Plug-In . SVG Version: 6.00 Build 0)  -->
<svg version="1.1" id="Layer_1" xmlns="http://www.w3.org/2000/svg" xmlns:xlink="http://www.w3.org/1999/xlink" x="0px" y="0px"
	 viewBox="0 0 80 90" style="enable-background:new 0 0 80 90;" xml:space="preserve">
<style type="text/css">
	.st0{fill:#A2D9DA;}
	.st1{fill:#6F2C90;}
</style>
<g>
	<path class="st0" d="M28.1,0C12.6,0,0,12.7,0,28.3s12.6,28.3,28.1,28.3s28-12.6,28-28.3S43.6,0,28.1,0z M18.3,22.5h-4.5V27H18v3.3
		h-4.2v7.1H10V19.2h8.3V22.5z M33.7,37.4h-4.5l-5-12h-0.1c0.1,0.9,0.1,1.8,0.2,2.5c0,0.7,0.1,1.4,0.1,1.9v7.6h-3.6V19.2h4.5l5,11.8
		h0.1c-0.1-0.9-0.1-1.7-0.1-2.4c0-0.7-0.1-1.3-0.1-1.9v-7.5h3.6L33.7,37.4L33.7,37.4z M43.6,37.4l-2.1-5.7l-2.2,5.7h-4l4-9.2l-3.8-9
		h4l1.9,5.4l1.8-5.4h4l-3.7,8.9l4.2,9.3H43.6z"/>
	<g>
		<g>
			<path class="st1" d="M57.9,69.1V74c0.6-0.2,1-0.6,1.3-1c0.2-0.4,0.3-0.9,0.3-1.5s-0.1-1-0.4-1.4C58.7,69.7,58.4,69.4,57.9,69.1z"
				/>
			<path class="st1" d="M53.3,57.5c-0.2,0.5-0.3,1-0.3,1.6c0,1,0.6,1.8,1.8,2.4v-4.8C54.1,56.8,53.6,57.1,53.3,57.5z"/>
			<path class="st1" d="M56.1,41.9c-13.2,0-23.9,10.8-23.9,24.1S43,90,56.1,90C69.3,90,80,79.2,80,65.9S69.3,41.9,56.1,41.9z
				 M63.1,76.6c-1.2,1.5-3,2.5-5.2,3v4.1h-3.1v-4c-1.2-0.1-2.4-0.3-3.6-0.6c-1.3-0.3-2.5-0.7-3.5-1.3v-6.3c1,0.7,2.2,1.4,3.5,1.9
				c1.3,0.6,2.5,0.9,3.7,0.9v-6.8c-2.5-1-4.3-2.2-5.6-3.5s-1.9-3.1-1.9-5.2c0-2.4,0.7-4.2,2.1-5.5c1.4-1.3,3.2-2.1,5.4-2.4v-3H58V51
				c1,0.1,2.1,0.3,3.2,0.7c1.1,0.3,2.2,0.8,3.3,1.4L63,58.4c-0.8-0.5-1.7-0.8-2.5-1.1c-0.9-0.3-1.7-0.5-2.5-0.6v6.2
				c2.5,0.9,4.2,2,5.4,3.2c1.1,1.2,1.7,2.9,1.7,5C64.9,73.2,64.3,75.1,63.1,76.6z"/>
		</g>
	</g>
</g>
</svg>
