<?xml version="1.0" encoding="utf-8"?>
<!-- Generator: Adobe Illustrator 23.0.1, SVG Export Plug-In . SVG Version: 6.00 Build 0)  -->
<svg version="1.1" id="Layer_1" xmlns="http://www.w3.org/2000/svg" xmlns:xlink="http://www.w3.org/1999/xlink" x="0px" y="0px"
	 viewBox="0 0 80 90" style="enable-background:new 0 0 80 90;" xml:space="preserve">
<style type="text/css">
	.st0{fill:#6F2C90;}
	.st1{fill:#224099;}
	.st2{fill:#A2D9DA;}
</style>
<g>
	<g>
		<path class="st0" d="M42,34.2c0.1-0.3,0.3-0.6,0.3-0.9c0.7-3.1,1.4-6.2,2.1-9.2c0.1-0.5,0.2-0.7,0.7-0.6c1.5,0.2,3.1,0.5,4.6,0.7
			c1.8,0.2,2.8,1.3,2.9,3.4c0.2,3.2,0.5,6.5,0.6,9.7c0,2.1-0.3,4.3-0.5,6.4c-0.1,0.6-0.2,1.2-0.2,1.8c-0.2,1.9-1.1,3-2.8,3.5
			c-1.4,0.4-1.3,0.1-1.4,2c-0.2,3.4-0.4,6.8-0.6,10.2c-0.2,2.7-0.3,5.4-0.5,8.2c-0.2,2.5-0.3,5-0.7,7.4c-0.3,2.2-2.1,3.3-4,2.7
			c-0.6-0.2-1.3-0.5-1.9-0.9c-0.6-0.4-1.1-0.4-1.7,0c-0.4,0.3-1,0.6-1.5,0.8c-2.5,0.9-4.4-0.5-4.6-3.5c-0.4-5.7-0.8-11.4-1.2-17.1
			c-0.2-2.8-0.3-5.7-0.5-8.5c0-0.6-0.2-0.9-0.7-1c-2.1-0.4-3.2-1.8-3.5-4.2c-0.5-3.8-0.8-7.6-0.4-11.5c0.2-1.7,0.3-3.4,0.3-5.1
			c0.1-3,1-4.1,3.8-4.3c1.2-0.1,2.5-0.3,3.7-0.5c0.5-0.1,0.8,0,0.9,0.7c0.7,3.1,1.4,6.1,2.1,9.2c0.1,0.3,0.3,0.6,0.6,0.9
			c0.2-1.3,0.4-2.6,0.5-3.9c0.1-0.7,0.1-1.3,0.2-2c0.2-0.8,0-1.4-0.3-2.1c-0.4-0.9-0.1-1.4,0.8-1.4c0.4,0,0.8,0,1.2,0
			c0.8,0,1.1,0.4,0.8,1.2c-0.4,0.9-0.4,1.7-0.3,2.6c0.2,1.8,0.5,3.7,0.7,5.5C41.9,34.2,42,34.2,42,34.2z"/>
		<path class="st1" d="M15.2,18.1c0.6,3.7,1.3,7.3,2.7,10.7c0.3-2.2,0.6-4.4,0.8-6.6c0-0.4-0.2-0.8-0.4-1.3
			c-0.3-0.9-0.1-1.3,0.8-1.4c0.5,0,1.1,0,1.6,0c0.7,0,1,0.6,0.7,1.1c-0.7,1.3-0.3,2.6-0.2,3.9c0.1,1.4,0.3,2.8,0.6,4.3
			c1.3-3.4,2-6.9,2.6-10.6c0.6,0.1,1.2,0.1,1.8,0.2c1.4,0.2,2.7,0.3,4.1,0.6c0.8,0.1,1.5,0.5,1.9,1.5c-0.9,0.1-1.6,0.2-2.4,0.3
			c-3.2,0.2-5.2,2.3-5.5,5.9c-0.3,3.6-0.6,7.1-0.6,10.7c0,2.9,0.5,5.8,0.9,8.7c0.3,2,1.4,3.5,3.1,4.4c0.5,0.2,0.6,0.5,0.5,1
			c-0.5,6.5-0.9,13.1-1.4,19.6c-0.2,2.8-2.4,4.4-4.8,3.1c-1.6-0.8-2.8-0.9-4.4,0c-2.5,1.3-4.6-0.3-4.8-3.4c-0.5-7.5-1.1-15-1.6-22.6
			c-0.1-1.1-0.1-2.2-0.1-3.2c0-0.6-0.2-0.8-0.7-0.9c-2.5-0.7-3.1-1.5-3.5-4.3C6.1,35,6.2,30.4,6.6,25.7c0.1-1.2,0.2-2.3,0.3-3.5
			c0.1-2.1,0.9-3.1,2.8-3.4C11.5,18.5,13.3,18.3,15.2,18.1z"/>
		<path class="st1" d="M47.5,20.3c0.6-1.2,1.5-1.5,2.4-1.6c1.5-0.2,3.1-0.4,4.7-0.6c0.6-0.1,0.8,0.1,0.9,0.8c0.6,2.9,1.3,5.8,2,8.7
			c0.1,0.3,0.2,0.7,0.6,1c0.1-1,0.3-2.1,0.4-3.1c0.1-0.9,0.3-1.7,0.3-2.6c0-0.7-0.1-1.4-0.3-2c-0.3-1-0.1-1.4,0.8-1.5
			c0.5,0,0.9,0,1.4,0c0.8,0,1.2,0.5,0.8,1.3c-0.4,0.9-0.4,1.7-0.3,2.6c0.2,1.8,0.4,3.6,0.7,5.3c1.4-3.4,2-7,2.6-10.6
			c0.5,0,0.9,0,1.3,0.1c1.3,0.2,2.6,0.4,3.8,0.5c2,0.2,3.1,1.2,3.2,3.5c0.2,4.1,0.5,8.2,0.5,12.2c0,2.1-0.4,4.2-0.7,6.2
			c-0.3,1.9-1.5,2.9-3.1,3.2c-0.7,0.2-0.9,0.5-0.9,1.3C68.3,51,68,56.8,67.6,62.6c-0.2,2.6-0.4,5.1-0.6,7.7c0,0.4-0.1,0.8-0.1,1.2
			c-0.4,2.1-2,3.3-3.9,2.8c-0.8-0.2-1.5-0.6-2.3-1c-0.5-0.3-0.9-0.3-1.4,0c-0.6,0.4-1.3,0.8-2,1c-2.2,0.7-4-0.6-4.2-3.1
			c-0.4-4.3-0.7-8.6-1-12.8c-0.2-2.3-0.3-4.6-0.5-6.8c0-0.6,0-1,0.6-1.3c1.9-1,2.8-2.8,3.2-5.1c1.1-5.7,0.8-11.5,0.2-17.2
			c-0.1-0.7-0.1-1.5-0.2-2.2c-0.5-3-2.4-4.8-5.2-5.1C49.3,20.5,48.5,20.4,47.5,20.3z"/>
		<path class="st2" d="M8.9,63.3c0.2,1.4,0.4,2.6,0.5,3.8c0,0.3-0.3,0.7-0.5,0.9c-1.1,0.9-2.4,1.6-3.5,2.6c-1.9,1.8-1.9,3.9,0,5.8
			c2.4,2.4,5.4,3.7,8.4,4.8c4.9,1.8,10,2.8,15.2,3.3C33,84.7,37,85,41,85c7.1,0,14.2-0.7,21.2-2.6c3.7-1,7.4-2.3,10.7-4.6
			c0.8-0.6,1.6-1.3,2.2-2.1c1.2-1.5,1.3-3.2-0.1-4.6c-1.2-1.2-2.5-2.2-3.9-3.1c-0.7-0.5-1.1-0.9-0.8-1.8c0.2-0.9,0.3-1.9,0.4-2.9
			c0.2,0,0.4,0,0.5,0c2.5,1.2,4.9,2.6,6.8,4.9c2.8,3.3,2.7,7.3-0.1,10.6c-2,2.4-4.6,3.9-7.3,5.1c-4.4,2-9.1,3.3-13.8,4
			c-4,0.6-7.9,1.1-11.9,1.3c-3.9,0.2-7.9,0.2-11.8,0c-6.4-0.4-12.7-1.4-18.9-3.4c-3.7-1.2-7.3-2.7-10.4-5.3
			c-1.3-1.1-2.4-2.3-3.1-3.9c-1-2.2-0.9-4.4,0.3-6.5C2.7,66.6,5.7,64.9,8.9,63.3z"/>
		<path class="st1" d="M60,0c1.1,0.3,2.2,0.6,3.2,1.1c1.4,0.7,2.2,2,2.4,3.7c0.3,3.6-0.3,7-2.5,9.8c-1.8,2.4-4.3,2.5-6.2,0.1
			c-2.2-2.9-2.9-6.4-2.4-10.2c0.3-2.4,2.2-4,4.7-4.2c0.3,0,0.5,0,0.8,0C60,0.1,60,0.1,60,0z"/>
		<path class="st1" d="M25.5,6.9c-0.1,2.3-0.7,5.2-2.5,7.5c-1.9,2.5-4.4,2.6-6.3,0.1c-2.1-2.9-2.8-6.3-2.4-9.9
			c0.2-2.2,1.6-3.5,3.5-4.1c1.4-0.4,2.8-0.4,4.1,0C24.4,1.3,25.5,3.2,25.5,6.9z"/>
		<path class="st0" d="M34.5,11.5c0-4.4,3.2-6.9,7.4-5.6c2.5,0.8,3.8,2.5,3.7,5.4c0,3.2-0.7,6.2-2.6,8.7c-1.8,2.2-4.2,2.1-6-0.1
			C35.4,17.8,34.5,14.7,34.5,11.5z"/>
	</g>
</g>
</svg>
