<?xml version="1.0" encoding="utf-8"?>
<!-- Generator: Adobe Illustrator 23.0.1, SVG Export Plug-In . SVG Version: 6.00 Build 0)  -->
<svg version="1.1" id="Layer_1" xmlns="http://www.w3.org/2000/svg" xmlns:xlink="http://www.w3.org/1999/xlink" x="0px" y="0px"
	 viewBox="0 0 560 420" style="enable-background:new 0 0 560 420;" xml:space="preserve">
<style type="text/css">
	.st0{fill:#A2D9DA;}
	.st1{fill:#F1F1F2;}
	.st2{fill:none;stroke:#F1F1F2;stroke-width:1.2285;stroke-miterlimit:10;}
	.st3{fill:none;stroke:#F1F1F2;stroke-width:1.2285;stroke-miterlimit:10;stroke-dasharray:10.2477,10.2477;}
	.st4{fill:none;stroke:#F1F1F2;stroke-width:1.2285;stroke-miterlimit:10;stroke-dasharray:10.4363,10.4363;}
	.st5{fill:none;stroke:#F1F1F2;stroke-width:1.2285;stroke-miterlimit:10;stroke-dasharray:11.4248,11.4248;}
	.st6{fill:none;stroke:#F1F1F2;stroke-width:1.2285;stroke-miterlimit:10;stroke-dasharray:10.2565,10.2565;}
	.st7{fill:none;stroke:#F1F1F2;stroke-width:1.2285;stroke-miterlimit:10;stroke-dasharray:10.4793,10.4793;}
	.st8{fill:none;stroke:#F1F1F2;stroke-width:1.2285;stroke-miterlimit:10;stroke-dasharray:10.4008;}
	.st9{fill:#9F66A9;}
	.st10{fill:#A1D8D9;}
</style>
<g>
	<g>
		<path class="st0" d="M151,334.5l1.7-3.2L151,334.5c-30.5-15.8-53.1-42.5-63.5-75.3c-10.4-32.7-7.4-67.6,8.4-98.1
			c32.6-63,110.5-87.7,173.5-55.1c63,32.6,87.8,110.4,55.1,173.3c-15.8,30.5-42.6,53-75.3,63.4c-12.8,4.1-26,6.1-39.1,6.1
			C189.7,348.9,169.6,344.1,151,334.5z M102.4,164.5c-14.9,28.8-17.7,61.6-7.9,92.5c9.8,30.9,31.1,56.1,59.9,71
			c28.8,14.9,61.7,17.7,92.6,7.9c30.9-9.8,56.2-31.1,71.1-59.8c30.8-59.4,7.5-132.8-52-163.5c-17.8-9.2-36.9-13.6-55.6-13.6
			C166.4,99,123.9,122.9,102.4,164.5z"/>
	</g>
	<g>
		<g>
			<path class="st1" d="M79.6,149.5c10.1-16.5,22.7-31.1,37.5-42.9c14.8-11.8,31.7-20.9,49.7-26.6c18-5.7,37-8.1,55.9-6.9
				c18.9,1.1,37.7,5.8,55.4,13.4c-8.2-5.1-17.1-9.1-26.4-12.3c-9.3-3.1-18.9-5.2-28.6-6.3c-19.5-2.2-39.6-0.2-58.3,5.8
				c-18.8,6-36.3,15.9-51,28.9c-7.4,6.5-13.9,13.8-19.7,21.6C88.3,132.2,83.4,140.6,79.6,149.5z"/>
		</g>
	</g>
	<path class="st1" d="M224.5,161.2h15.1c1.1,0,2-0.9,2-2v-15c0-1.1-0.9-2-2-2h-15.1c-1.1,0-2,0.9-2,2v15
		C222.5,160.3,223.4,161.2,224.5,161.2z"/>
	<path class="st1" d="M90.9,27.7H106c1.1,0,2-0.9,2-2v-15c0-1.1-0.9-2-2-2H90.9c-1.1,0-2,0.9-2,2v15C88.9,26.8,89.8,27.7,90.9,27.7z
		"/>
	<path class="st1" d="M499.6,298.8h13.3c1.1,0,2-0.9,2-2v-13.3c0-1.1-0.9-2-2-2h-13.3c-1.1,0-2,0.9-2,2v13.3
		C497.6,297.9,498.5,298.8,499.6,298.8z"/>
	<path class="st1" d="M54.3,420h13.3c1.1,0,2-0.9,2-2v-13.3c0-1.1-0.9-2-2-2H54.3c-1.1,0-2,0.9-2,2V418
		C52.3,419.1,53.2,420,54.3,420z"/>
	<path class="st1" d="M2,262.9h15.1c1.1,0,2-0.9,2-2v-15c0-1.1-0.9-2-2-2H2c-1.1,0-2,0.9-2,2l0,15C0,262,0.9,262.9,2,262.9z"/>
	<path class="st1" d="M524.2,27.7h15.1c1.1,0,2-0.9,2-2v-15c0-1.1-0.9-2-2-2h-15.1c-1.1,0-2,0.9-2,2v15
		C522.2,26.8,523.1,27.7,524.2,27.7z"/>
	<g>
		<g>
			<line class="st2" x1="531.7" y1="18.2" x2="527" y2="20.3"/>
			<line class="st3" x1="517.6" y1="24.5" x2="241.5" y2="147.5"/>
			<polyline class="st2" points="236.8,149.6 232,151.7 235.6,155.5 			"/>
			<line class="st4" x1="242.7" y1="163.1" x2="452.2" y2="388.7"/>
			<line class="st2" x1="455.8" y1="392.5" x2="459.3" y2="396.3"/>
		</g>
	</g>
	<g>
		<g>
			<line class="st2" x1="505.4" y1="292.9" x2="503.3" y2="297.6"/>
			<line class="st5" x1="498.6" y1="308.1" x2="463.8" y2="386.3"/>
			<polyline class="st2" points="461.4,391.6 459.3,396.3 454.4,394.7 			"/>
			<line class="st6" x1="444.6" y1="391.6" x2="19.4" y2="256.5"/>
			<polyline class="st2" points="14.5,255 9.5,253.4 11.4,248.5 			"/>
			<line class="st7" x1="15.1" y1="238.7" x2="94.8" y2="28"/>
			<line class="st2" x1="96.6" y1="23.1" x2="98.4" y2="18.2"/>
		</g>
	</g>
	<line class="st8" x1="232" y1="151.7" x2="60.9" y2="411.3"/>
	<ellipse class="st9" cx="27.9" cy="241.9" rx="4.7" ry="4.7"/>
	<ellipse class="st9" cx="464.3" cy="144.8" rx="4.7" ry="4.7"/>
	<ellipse class="st9" cx="121.5" cy="27.7" rx="4.7" ry="4.7"/>
	<path class="st10" d="M441.9,415.7h34.9c1.1,0,2-0.9,2-2v-34.8c0-1.1-0.9-2-2-2h-34.9c-1.1,0-2,0.9-2,2v34.8
		C439.9,414.8,440.8,415.7,441.9,415.7z"/>
	<path class="st0" d="M423.2,187.8h49.3c1.1,0,2-0.9,2-2v-49.3c0-1.1-0.9-2-2-2h-49.3c-1.1,0-2,0.9-2,2v49.3
		C421.2,186.9,422.1,187.8,423.2,187.8z"/>
	<path class="st0" d="M401.6,203.5h11.7c1.1,0,2-0.9,2-2v-11.7c0-1.1-0.9-2-2-2h-11.7c-1.1,0-2,0.9-2,2v11.7
		C399.6,202.6,400.5,203.5,401.6,203.5z"/>
	<path class="st0" d="M546.3,35.6H558c1.1,0,2-0.9,2-2V21.9c0-1.1-0.9-2-2-2h-11.7c-1.1,0-2,0.9-2,2v11.7
		C544.3,34.7,545.2,35.6,546.3,35.6z"/>
	<path class="st0" d="M115.4,15.7h11.7c1.1,0,2-0.9,2-2V2c0-1.1-0.9-2-2-2l-11.7,0c-1.1,0-2,0.9-2,2v11.7
		C113.4,14.8,114.3,15.7,115.4,15.7z"/>
</g>
</svg>
