<?xml version="1.0" encoding="utf-8"?>
<!-- Generator: Adobe Illustrator 23.0.1, SVG Export Plug-In . SVG Version: 6.00 Build 0)  -->
<svg version="1.1" id="Layer_1" xmlns="http://www.w3.org/2000/svg" xmlns:xlink="http://www.w3.org/1999/xlink" x="0px" y="0px"
	 viewBox="0 0 820 540" style="enable-background:new 0 0 820 540;" xml:space="preserve">
<style type="text/css">
	.st0{fill:#F1F1F2;}
</style>
<g>
	<path class="st0" d="M544.6,16.7l-8.7,8.3l1,1l8.7-8.3L544.6,16.7L544.6,16.7z M527.2,33.4l-1.2,1.2c-2.4,2.3-7.4,7.2-7.4,7.2l1,1
		l8.7-8.3L527.2,33.4L527.2,33.4z M509.8,50.1l-8.7,8.3l1,1l8.7-8.3L509.8,50.1L509.8,50.1z M492.5,66.8l-2.5,2.4
		c-2.6,2.5-6.2,6-6.2,6l1,1l8.7-8.3L492.5,66.8L492.5,66.8z M475.1,83.5l-8.7,8.3l1,1l8.7-8.3L475.1,83.5L475.1,83.5z M457.7,100.2
		c0,0-2.7,2.6-5.1,4.9l-3.6,3.5l1,1l8.7-8.3L457.7,100.2L457.7,100.2z M440.3,116.9l-4.2,4c-2.2,2.1-4.5,4.3-4.5,4.3l1,1l8.7-8.3
		L440.3,116.9L440.3,116.9z M423,133.6c0,0-1.9,1.8-3.9,3.7l-4.8,4.6l1,1l8.7-8.3L423,133.6L423,133.6z M405.6,150.3l-8.7,8.3l1,1
		l8.7-8.3L405.6,150.3L405.6,150.3z M388.2,166.9l-5.7,5.4c0,0,0,0,0,0l0,0c0,0,0,0,0,0l0,0c0,0,0,0,0,0l0,0
		c-1.6,1.5-2.9,2.8-2.9,2.8l1,1l8.7-8.3L388.2,166.9L388.2,166.9z M370.8,183.6l-8.7,8.3l1,1l8.7-8.3L370.8,183.6L370.8,183.6z
		 M353.5,200.3l-6.9,6.6c0,0,0,0,0,0l0,0c0,0,0,0,0,0l0,0c0,0,0,0,0,0l0,0c0,0,0,0,0,0l0,0c0,0,0,0,0,0l0,0c0,0,0,0,0,0l0,0
		c-1,0.9-1.7,1.6-1.7,1.6l1,1l8.7-8.3L353.5,200.3L353.5,200.3z M336.1,217l-8.7,8.3l1,1l8.7-8.3L336.1,217L336.1,217z M318.7,233.7
		l-8.7,8.3l1,1l8.7-8.3L318.7,233.7L318.7,233.7z M301.3,250.4L301.3,250.4C301.3,250.4,301.3,250.4,301.3,250.4L301.3,250.4
		C301.3,250.4,301.3,250.4,301.3,250.4L301.3,250.4C301.3,250.4,301.3,250.4,301.3,250.4L301.3,250.4
		C301.3,250.4,301.3,250.4,301.3,250.4L301.3,250.4C301.3,250.4,301.3,250.4,301.3,250.4L301.3,250.4
		C301.3,250.5,301.3,250.5,301.3,250.4L301.3,250.4c-0.1,0.1-0.2,0.2-0.2,0.2l0,0c0,0,0,0-0.1,0.1l0,0c0,0,0,0,0,0l0,0c0,0,0,0,0,0
		l0,0c0,0,0,0,0,0l0,0c0,0,0,0,0,0l0,0c0,0,0,0,0,0l0,0c0,0,0,0,0,0l0,0c0,0,0,0,0,0l0,0c0,0-0.1,0.1-0.1,0.1l0,0
		c-0.1,0.1-0.1,0.1-0.2,0.2l0,0c0,0-0.1,0.1-0.1,0.1l0,0c0,0-0.1,0.1-0.1,0.1l0,0c0,0-0.1,0.1-0.1,0.1l0,0c0,0-0.1,0.1-0.1,0.1l0,0
		c0,0,0,0,0,0l0,0c0,0,0,0,0,0l0,0c0,0,0,0,0,0l0,0c0,0,0,0-0.1,0.1l0,0c-0.1,0-0.1,0.1-0.2,0.1l0,0c-0.1,0.1-0.2,0.2-0.3,0.3l0,0
		c-0.1,0.1-0.2,0.2-0.3,0.3l0,0c-0.1,0.1-0.1,0.1-0.2,0.2l0,0c0,0-0.1,0.1-0.1,0.1l0,0c0,0,0,0,0,0l0,0c0,0,0,0,0,0l0,0c0,0,0,0,0,0
		l0,0c0,0-0.1,0.1-0.1,0.1l0,0c-0.1,0.1-0.2,0.2-0.3,0.3l0,0c-0.1,0.1-0.2,0.2-0.4,0.3l0,0c0,0,0,0,0,0l0,0
		c-0.1,0.1-0.1,0.1-0.2,0.2l0,0c0,0-0.1,0.1-0.1,0.1l0,0c0,0,0,0-0.1,0.1l0,0c0,0,0,0,0,0l0,0c0,0-0.1,0.1-0.1,0.1l0,0c0,0,0,0,0,0
		l0,0c0,0,0,0,0,0l0,0c0,0,0,0,0,0l0,0c0,0,0,0,0,0l0,0c0,0,0,0,0,0l0,0c0,0,0,0,0,0l0,0c0,0,0,0,0,0l-0.1,0.1c0,0,0,0,0,0l0,0
		c0,0,0,0,0,0l0,0c0,0,0,0,0,0l0,0c0,0,0,0,0,0l0,0c0,0-0.1,0.1-0.1,0.1l0,0c0,0-0.1,0.1-0.1,0.1l0,0c-0.1,0.1-0.1,0.1-0.2,0.2l0,0
		c0,0-0.1,0.1-0.1,0.1l0,0c0,0,0,0,0,0l0,0l0,0l0,0c-0.1,0.1-0.3,0.2-0.4,0.4l0,0c-0.1,0.1-0.1,0.1-0.2,0.2l0,0c0,0,0,0,0,0l0,0
		c0,0,0,0,0,0l0,0c0,0,0,0,0,0l0,0c0,0,0,0,0,0l0,0c0,0,0,0,0,0l-0.1,0.1c0,0,0,0,0,0l0,0c0,0,0,0,0,0l0,0c0,0-0.1,0.1-0.1,0.1l0,0
		c-0.1,0.1-0.1,0.1-0.2,0.2l0,0c-0.1,0.1-0.1,0.1-0.2,0.2l0,0c0,0-0.1,0.1-0.1,0.1l0,0c0,0,0,0,0,0l0,0c0,0,0,0,0,0l0,0
		c-0.1,0.1-0.1,0.1-0.2,0.2l0,0c0,0-0.1,0.1-0.1,0.1l0,0c0,0,0,0,0,0l0,0c0,0,0,0,0,0l0,0c0,0,0,0-0.1,0l0,0c0,0,0,0,0,0l0,0
		c0,0,0,0,0,0l0,0c0,0,0,0-0.1,0.1l0,0c0,0,0,0,0,0l-0.1,0.1c0,0,0,0,0,0l0,0c0,0,0,0,0,0l0,0c0,0,0,0,0,0l0,0c0,0,0,0,0,0l0,0
		c0,0,0,0-0.1,0.1l0,0c0,0,0,0-0.1,0l0,0c0,0-0.1,0.1-0.1,0.1l0,0c0,0,0,0-0.1,0.1l0,0c0,0,0,0,0,0l0,0c0,0,0,0,0,0l0,0
		c0,0-0.1,0.1-0.1,0.1l0,0c0,0,0,0-0.1,0.1l0,0c0,0,0,0,0,0l0,0c0,0-0.1,0.1-0.1,0.1l0,0c0,0,0,0,0,0l0,0c0,0,0,0,0,0l0,0
		c0,0,0,0,0,0l0,0c0,0,0,0,0,0l0,0c0,0,0,0,0,0l0,0c0,0,0,0,0,0l0,0c0,0,0,0,0,0l0,0c0,0,0,0-0.1,0.1l0,0c0,0,0,0,0,0l0,0
		c0,0,0,0,0,0l0,0c0,0,0,0,0,0l0,0c0,0,0,0,0,0l0,0c0,0,0,0,0,0l0,0c0,0,0,0,0,0l0,0c0,0,0,0,0,0l0,0c0,0,0,0,0,0l0,0c0,0,0,0,0,0
		l0,0c0,0,0,0,0,0l0,0c0,0,0,0,0,0l0,0c0,0,0,0,0,0l0,0c0,0,0,0,0,0l0,0c0,0,0,0,0,0l0,0c0,0,0,0,0,0l0,0c0,0,0,0,0,0l0,0
		c0,0,0,0,0,0l0,0c0,0,0,0,0,0l0,0l1,1l8.7-8.3L301.3,250.4L301.3,250.4z M284,267.1l-8.7,8.3l1,1l8.7-8.3L284,267.1L284,267.1z
		 M266.6,283.8c0,0-4.9,4.7-7.4,7.1l-1.3,1.3l1,1l8.7-8.3L266.6,283.8L266.6,283.8z M249.2,300.5l-8.7,8.3l1,1l8.7-8.3L249.2,300.5
		L249.2,300.5z M231.8,317.2l-8.7,8.3l1,1l8.7-8.3L231.8,317.2L231.8,317.2z M214.5,333.9l-3,2.9c-2.5,2.4-5.7,5.4-5.7,5.4l1,1
		l8.7-8.3L214.5,333.9L214.5,333.9z M197.1,350.6l-8.7,8.3l1,1l8.7-8.3L197.1,350.6L197.1,350.6z M179.7,367.3l-8.7,8.3l1,1l8.7-8.3
		L179.7,367.3L179.7,367.3z M162.4,384l-4.7,4.5c0,0,0,0,0,0l0,0c-2,2-4,3.8-4,3.8l1,1l8.7-8.3L162.4,384L162.4,384z M145,400.7
		c0,0-1.6,1.5-3.4,3.3l-5.3,5.1l1,1l8.7-8.3L145,400.7L145,400.7z M127.6,417.4l-8.7,8.3l1,1l8.7-8.3L127.6,417.4L127.6,417.4z
		 M110.2,434.1c0,0-0.9,0.9-2.2,2.1l0,0c0,0,0,0,0,0l-6.5,6.2l1,1l8.7-8.3L110.2,434.1L110.2,434.1z M92.9,450.8l-8.7,8.3l1,1
		l8.7-8.3L92.9,450.8L92.9,450.8z M75.5,467.5l-7.6,7.3c-0.6,0.6-1,1-1,1l1,1l8.7-8.3L75.5,467.5L75.5,467.5z M58.1,484.2l-8.7,8.3
		l1,1l8.7-8.3L58.1,484.2L58.1,484.2z M40.7,500.8c0,0-1,1-2.3,2.2l0,0c-0.1,0.1-0.2,0.2-0.3,0.3l0,0c0,0,0,0,0,0l0,0c0,0,0,0,0,0
		l0,0l0,0l0,0c-0.2,0.2-0.4,0.4-0.6,0.6l0,0c0,0,0,0-0.1,0.1l0,0c0,0,0,0,0,0l-0.1,0.1c0,0,0,0-0.1,0.1l0,0c0,0,0,0,0,0l0,0
		c0,0,0,0,0,0l-0.1,0.1c0,0,0,0,0,0l0,0c0,0,0,0,0,0l0,0c0,0,0,0,0,0l-0.1,0.1c0,0,0,0,0,0l-0.1,0.1c0,0,0,0,0,0l0,0c0,0,0,0,0,0
		l-0.1,0.1c0,0,0,0,0,0l-0.1,0.1c0,0,0,0,0,0l-0.2,0.2c0,0,0,0,0,0l-0.2,0.2c0,0,0,0,0,0l-0.3,0.3c0,0,0,0,0,0l-3.7,3.5l1,1l8.7-8.3
		L40.7,500.8L40.7,500.8z M23.4,517.5l-0.6,0.6c0,0,0,0,0,0l0,0c-2,1.9-8.1,7.8-8.1,7.8l1,1l8.7-8.3L23.4,517.5L23.4,517.5z
		 M6,534.2L0,540l0,0l0,0l0,0l0,0l0,0l0,0l0,0l0,0h2.1l0,0c0.9,0,1.7,0,1.7,0v-1.4H3.5l3.4-3.3L6,534.2L6,534.2z M27.8,538.6h-12
		v1.4h12V538.6L27.8,538.6z M51.9,538.6h-12v1.4h12V538.6L51.9,538.6z M76,538.6H64v1.4h12V538.6L76,538.6z M100.1,538.6h-12v1.4h12
		V538.6L100.1,538.6z M124.2,538.6h-12v1.4h12V538.6L124.2,538.6z M148.3,538.6h-12v1.4h12V538.6L148.3,538.6z M172.4,538.6h-12v1.4
		h12V538.6L172.4,538.6z M196.5,538.6h-12v1.4h12V538.6L196.5,538.6z M220.6,538.6h-12v1.4h12V538.6L220.6,538.6z M244.7,538.6h-12
		v1.4h12V538.6L244.7,538.6z M268.8,538.6h-12v1.4h12V538.6L268.8,538.6z M292.9,538.6h-12v1.4h12V538.6L292.9,538.6z M317,538.6
		h-12v1.4h12V538.6L317,538.6z M341.1,538.6h-12v1.4h12V538.6L341.1,538.6z M365.2,538.6h-12v1.4h12V538.6L365.2,538.6z
		 M389.2,538.6h-12v1.4h12V538.6L389.2,538.6z M413.3,538.6h-12v1.4h12V538.6L413.3,538.6z M437.4,538.6h-12v1.4h12V538.6
		L437.4,538.6z M461.5,538.6h-12v1.4h12V538.6L461.5,538.6z M485.6,538.6h-12v1.4h12V538.6L485.6,538.6z M509.7,538.6h-12v1.4h12
		V538.6L509.7,538.6z M533.8,538.6h-12v1.4h12V538.6L533.8,538.6z M557.9,538.6h-12v1.4h12V538.6L557.9,538.6z M582,538.6h-12v1.4
		h12V538.6L582,538.6z M606.1,538.6h-12v1.4h12V538.6L606.1,538.6z M630.2,538.6h-12v1.4h12V538.6L630.2,538.6z M654.3,538.6h-12
		v1.4h12V538.6L654.3,538.6z M678.4,538.6h-12v1.4h12V538.6L678.4,538.6z M702.5,538.6h-12v1.4h12V538.6L702.5,538.6z M726.6,538.6
		h-12v1.4h12V538.6L726.6,538.6z M750.7,538.6h-12v1.4h12V538.6L750.7,538.6z M774.8,538.6h-12v1.4h12V538.6L774.8,538.6z
		 M798.9,538.6h-12v1.4h12V538.6L798.9,538.6z M818.7,537.3l-1.3,0.6l0.3,0.6h-6.8v1.4c0,0,4.9,0,7.5,0l0,0h1.6l0,0l0,0l0,0l0,0l0,0
		l0,0L818.7,537.3L818.7,537.3z M808.3,515.6l-1.3,0.6l5.2,10.9l1.3-0.6L808.3,515.6L808.3,515.6z M797.9,493.9l-1.3,0.6l5.2,10.9
		l1.3-0.6L797.9,493.9L797.9,493.9z M787.6,472.1l-1.3,0.6l5.2,10.9l1.3-0.6l-2.5-5.1c0,0,0,0,0,0l-0.1-0.2
		C788.9,474.9,787.6,472.1,787.6,472.1L787.6,472.1z M777.2,450.4l-1.3,0.6l5.2,10.9l1.3-0.6L777.2,450.4L777.2,450.4z M766.8,428.6
		l-1.3,0.6l5.2,10.9l1.3-0.6L766.8,428.6L766.8,428.6z M756.4,406.9l-1.3,0.6l5.2,10.9l1.3-0.6c0,0-1.1-2.4-2.4-4.9l0,0c0,0,0,0,0,0
		L756.4,406.9L756.4,406.9z M746,385.2l-1.3,0.6l5.2,10.9l1.3-0.6L746,385.2L746,385.2z M735.6,363.4l-1.3,0.6l5.2,10.9l1.3-0.6
		L735.6,363.4L735.6,363.4z M725.2,341.7l-1.3,0.6l5.2,10.9l1.3-0.6L725.2,341.7L725.2,341.7z M714.8,319.9l-1.3,0.6l5.2,10.9
		l1.3-0.6L714.8,319.9L714.8,319.9z M704.4,298.2l-1.3,0.6l5.2,10.9l1.3-0.6L704.4,298.2L704.4,298.2z M694.1,276.5l-1.3,0.6
		l5.2,10.9l1.3-0.6L694.1,276.5L694.1,276.5z M683.7,254.7l-1.3,0.6l5.2,10.9l1.3-0.6L683.7,254.7L683.7,254.7z M673.3,233l-1.3,0.6
		l5.2,10.9l1.3-0.6l-1.9-4c0,0,0,0,0,0l0,0c0,0,0,0,0,0l0,0c0,0,0,0,0,0l0,0c0,0,0-0.1-0.1-0.1l0,0c0,0,0,0,0-0.1l0,0c0,0,0,0,0,0
		l0,0C674.9,236.4,673.3,233,673.3,233L673.3,233z M662.9,211.2l-1.3,0.6l5.2,10.9l1.3-0.6L662.9,211.2L662.9,211.2z M652.5,189.5
		l-1.3,0.6l5.2,10.9l1.3-0.6L652.5,189.5L652.5,189.5z M642.1,167.8l-1.3,0.6l5.2,10.9l1.3-0.6c0,0-1.2-2.5-2.5-5.2l0,0c0,0,0,0,0,0
		L642.1,167.8L642.1,167.8z M631.7,146l-1.3,0.6l5.2,10.9l1.3-0.6L631.7,146L631.7,146z M621.3,124.3l-1.3,0.6l5.2,10.9l1.3-0.6l0,0
		c0,0,0,0,0,0l0,0c0,0,0,0,0,0l0,0c0,0,0,0,0,0l0,0c0,0,0,0,0,0l0,0c0,0,0,0,0,0l0,0c0,0,0,0,0,0l0,0c0,0,0,0,0,0l0,0c0,0,0,0,0,0
		l0,0c0,0,0,0,0,0l0,0c0,0,0,0,0,0l0,0c0,0,0,0,0,0l0,0c0,0,0,0,0,0l0,0c0,0,0,0,0,0l0,0c0,0,0,0,0,0l0,0c0,0,0,0,0,0l0,0
		c0,0,0,0,0,0l0,0c0,0,0,0,0,0l0,0c0,0,0,0,0,0l0,0c0,0,0,0,0,0l0,0c0,0,0,0,0,0l0,0c0,0,0,0,0,0l0,0c0,0,0,0,0,0l0,0c0,0,0,0,0,0
		l0,0c0,0,0,0,0,0l0,0c0,0,0,0,0,0l0,0c0,0,0,0,0,0l0,0c0,0,0,0,0,0l0,0c0,0,0,0,0,0l0,0c0,0,0,0,0,0l0,0c0,0,0,0,0,0l0,0
		c0,0,0,0,0,0l0,0c0,0,0,0,0,0l-0.1-0.1c0,0,0,0,0,0l0,0c0,0,0,0,0,0l0,0c0,0,0,0,0,0l0,0c0,0,0,0,0,0l0,0c0,0,0,0,0,0l0,0
		c0,0,0,0,0,0l0,0c0,0,0,0,0,0l0-0.1c0,0,0,0,0,0l0,0c0,0,0,0,0,0l0,0c0,0,0,0,0,0l0,0c0,0,0,0,0,0l0,0c0,0,0,0,0,0l0,0c0,0,0,0,0,0
		l0,0c0,0,0,0,0,0L621.3,124.3L621.3,124.3z M610.9,102.5l-1.3,0.6l5.2,10.9l1.3-0.6L610.9,102.5L610.9,102.5z M600.6,80.8l-1.3,0.6
		l5.2,10.9l1.3-0.6l-0.2-0.5c0,0,0,0,0,0l0,0c0,0,0,0,0,0v0c0,0,0,0,0,0l0,0c0,0,0,0,0,0l0,0c0,0,0,0,0,0l0,0c0,0,0,0,0,0l0,0
		c0,0,0,0,0,0l0,0c0,0,0,0,0,0l0,0C604.2,88.5,600.6,80.8,600.6,80.8L600.6,80.8z M590.2,59.1l-1.3,0.6l5.2,10.9l1.3-0.6L590.2,59.1
		L590.2,59.1z M579.8,37.3l-1.3,0.6l5.2,10.9l1.3-0.6L579.8,37.3L579.8,37.3z M569.4,15.6l-1.3,0.6l5.2,10.9l1.3-0.6l-4.8-10.1
		c0,0,0,0,0,0l-0.2-0.3c0,0,0,0,0,0l0,0c0,0,0,0,0,0l0,0c0,0,0,0,0,0l0,0c0,0,0,0,0,0l0,0c0,0,0-0.1,0-0.1l0,0c0-0.1,0-0.1-0.1-0.1
		l0,0C569.4,15.6,569.4,15.6,569.4,15.6L569.4,15.6L569.4,15.6z M561.9,0l-1.3,1.3c0,0,0,0,0,0l-7.4,7.1l1,1l7.3-7l1.4,2.9l1.3-0.6
		L561.9,0L561.9,0z"/>
</g>
</svg>
