<?xml version="1.0" encoding="utf-8"?>
<!-- Generator: Adobe Illustrator 23.0.1, SVG Export Plug-In . SVG Version: 6.00 Build 0)  -->
<svg version="1.1" id="Layer_1" xmlns="http://www.w3.org/2000/svg" xmlns:xlink="http://www.w3.org/1999/xlink" x="0px" y="0px"
	 viewBox="0 0 80 75" style="enable-background:new 0 0 80 75;" xml:space="preserve">
<style type="text/css">
	.st0{fill:#FFFFFF;}
	.st1{fill:#A2D9DA;}
</style>
<g>
	<path class="st0" d="M0,75c0-1.4,0-2.8,0-4.2c0.2-4.9,1-9.7,2.5-14.3c1.8-5.5,4.5-10.6,8.5-14.9c3.5-3.8,7.7-6.7,12.8-8
		c6.2-1.6,12.1-0.4,17.5,2.9c0,0,0.1,0.1,0.2,0.2c-0.2,0.1-0.4,0.1-0.5,0.2c-1.7,0.6-3.2,1.4-4.5,2.6c-1.2,1.2-1.9,2.5-2.3,4.1
		c-0.5,2.1-0.6,4.2,0,6.4c0.8,3.4,3.1,5.4,6.4,6.4c1.7,0.5,3.5,0.7,5.4,0.7c0.2,0,0.3,0,0.5,0c0.1,1,0.1,1.9,0.3,2.9
		c0.4,2.7,1.4,5.1,3.5,7c1.9,1.6,4.1,2.4,6.5,2.7c0.4,0.1,0.8,0,1.2,0.1c0.1,0,0.3,0.2,0.4,0.3c0,1.6,0,3.3,0,5
		C38.9,75,19.5,75,0,75z"/>
	<path class="st0" d="M29.5,28.8c-6.5,0-12.3-4.2-14.2-10.3c-2.1-6.9,1.4-14.2,8.1-17.2c7-3.1,15.3-0.3,19,6.3
		c3.9,7.1,1.1,16-6.2,19.6C34.2,28.2,31.9,28.8,29.5,28.8z"/>
	<g>
		<path class="st1" d="M60.5,64.3c-2.9,0-5.5-2-6.2-4.8c-0.1-0.5-0.2-1.1-0.2-1.7c0-1.5,0-3,0-4.5l0-1.7l-1.9,0c-1.5,0-3.1,0-4.6,0
			c-2,0-3.8-0.9-5-2.4c-1.2-1.5-1.6-3.4-1.3-5.3c0.6-2.9,3.3-5,6.3-5c1.5,0,3,0,4.5,0l2,0l0-1c0-1.7,0-3.3,0-5c0-0.6,0-1,0.1-1.5
			c0.6-3.1,3.5-5.4,6.8-5.1c3.4,0.3,6,2.9,6.1,6.1c0,1.5,0,3.1,0,4.6l0,1.9l2.2,0c1.4,0,2.9,0,4.3,0c3.5,0,6.4,2.7,6.5,6.1
			c0,1.7-0.6,3.3-1.8,4.6c-1.2,1.3-2.9,2-4.6,2c-1.6,0-3.1,0-4.7,0l-1.9,0l0,1.7c0,1.5,0,3.1,0,4.6c0,3.2-2.4,5.9-5.7,6.3
			C61,64.3,60.8,64.3,60.5,64.3z M54.3,50h1.5l0,3.3c0,1.5,0,3,0,4.5c0,0.5,0.1,1,0.1,1.3c0.6,2.3,2.8,3.8,5.2,3.5
			c2.5-0.3,4.2-2.2,4.3-4.6c0-1.5,0-3,0-4.6l0-3.4l3.6,0c1.6,0,3.1,0,4.6,0c1.3,0,2.6-0.5,3.5-1.5c0.9-0.9,1.3-2.1,1.3-3.4
			c-0.1-2.5-2.2-4.5-4.9-4.5c-1.4,0-2.9,0-4.3,0h-2.4c-0.1,0-0.3,0-0.4,0l-1-0.1l0-3.5c0-1.5,0-3,0-4.6c0-2.4-1.9-4.3-4.5-4.5
			c-2.4-0.2-4.6,1.5-5,3.8c-0.1,0.3-0.1,0.7-0.1,1.2c0,1.6,0,3.3,0,5v2.7l-3.7,0c-1.5,0-3,0-4.4,0c-2.3,0-4.3,1.6-4.7,3.7
			c-0.3,1.4,0,2.8,0.9,3.9c0.9,1.1,2.3,1.8,3.8,1.8c1.5,0,3.1,0,4.6,0L54.3,50z"/>
	</g>
</g>
</svg>
