<?xml version="1.0" encoding="utf-8"?>
<!-- Generator: Adobe Illustrator 23.0.1, SVG Export Plug-In . SVG Version: 6.00 Build 0)  -->
<svg version="1.1" id="Layer_1" xmlns="http://www.w3.org/2000/svg" xmlns:xlink="http://www.w3.org/1999/xlink" x="0px" y="0px"
	 viewBox="0 0 430 330" style="enable-background:new 0 0 430 330;" xml:space="preserve">
<style type="text/css">
	.st0{fill:url(#SVGID_1_);}
	.st1{fill:url(#SVGID_2_);}
	.st2{fill:url(#SVGID_3_);}
	.st3{fill:url(#SVGID_4_);}
	.st4{fill:url(#SVGID_5_);}
</style>
<g>
	<linearGradient id="SVGID_1_" gradientUnits="userSpaceOnUse" x1="-0.2958" y1="164.3429" x2="440.01" y2="172.6821">
		<stop  offset="0" style="stop-color:#9F66A9"/>
		<stop  offset="0.25" style="stop-color:#6F2C90"/>
		<stop  offset="0.4036" style="stop-color:#662E91"/>
		<stop  offset="0.654" style="stop-color:#4E3594"/>
		<stop  offset="0.9686" style="stop-color:#263F98"/>
		<stop  offset="1" style="stop-color:#224099"/>
	</linearGradient>
	<ellipse class="st0" cx="34.4" cy="165" rx="34.4" ry="35.1"/>
	<linearGradient id="SVGID_2_" gradientUnits="userSpaceOnUse" x1="-0.3555" y1="162.6361" x2="440.2725" y2="170.9813">
		<stop  offset="0" style="stop-color:#9F66A9"/>
		<stop  offset="0.25" style="stop-color:#6F2C90"/>
		<stop  offset="0.4036" style="stop-color:#662E91"/>
		<stop  offset="0.654" style="stop-color:#4E3594"/>
		<stop  offset="0.9686" style="stop-color:#263F98"/>
		<stop  offset="1" style="stop-color:#224099"/>
	</linearGradient>
	<path class="st1" d="M151.7,121.6c0.7-1,1.4-2,2.1-3.1c3.6-5.9,5.5-13.1,5-20.7c-1.1-17.4-14.8-31.6-31.9-32.8
		c-20.1-1.4-36.8,14.8-36.8,35.1c0,6.6,1.8,12.8,4.9,18c0.7,1.3,1.6,2.5,2.4,3.6c0.6,0.8,1.2,1.5,1.7,2.4
		c7.6,12,11.9,25.6,11.9,39.8c0,0.3,0,0.7,0,1c0,0.3,0,0.7,0,1c0,14.3-4.3,27.8-11.9,39.8c-0.5,0.8-1.1,1.6-1.7,2.4
		c-0.9,1.2-1.7,2.4-2.4,3.6c-3.1,5.3-4.9,11.4-4.9,18c0,20.2,16.7,36.5,36.8,35.1c17.1-1.2,30.8-15.4,31.9-32.8
		c0.5-7.6-1.5-14.7-5-20.7c-0.6-1.1-1.3-2.1-2.1-3.1c-0.5-0.7-1-1.3-1.4-2c-7.8-12.2-12.2-25.9-12.2-40.4c0-0.3,0-0.6,0-1
		c0-0.3,0-0.6,0-1c0-14.5,4.4-28.2,12.2-40.4C150.7,122.9,151.2,122.3,151.7,121.6z"/>
	<linearGradient id="SVGID_3_" gradientUnits="userSpaceOnUse" x1="-0.1692" y1="157.5044" x2="440.1366" y2="165.8435">
		<stop  offset="0" style="stop-color:#9F66A9"/>
		<stop  offset="0.25" style="stop-color:#6F2C90"/>
		<stop  offset="0.4036" style="stop-color:#662E91"/>
		<stop  offset="0.654" style="stop-color:#4E3594"/>
		<stop  offset="0.9686" style="stop-color:#263F98"/>
		<stop  offset="1" style="stop-color:#224099"/>
	</linearGradient>
	<ellipse class="st2" cx="395.6" cy="165" rx="34.4" ry="35.1"/>
	<linearGradient id="SVGID_4_" gradientUnits="userSpaceOnUse" x1="-0.4245" y1="159.2053" x2="440.2035" y2="167.5505">
		<stop  offset="0" style="stop-color:#9F66A9"/>
		<stop  offset="0.25" style="stop-color:#6F2C90"/>
		<stop  offset="0.4036" style="stop-color:#662E91"/>
		<stop  offset="0.654" style="stop-color:#4E3594"/>
		<stop  offset="0.9686" style="stop-color:#263F98"/>
		<stop  offset="1" style="stop-color:#224099"/>
	</linearGradient>
	<path class="st3" d="M333.5,120.6c0.6-0.8,1.1-1.6,1.6-2.5c3.1-5.3,4.9-11.4,4.9-18c0-20.2-16.7-36.5-36.8-35.1
		c-17.1,1.2-30.8,15.4-31.9,32.8c-0.5,7.6,1.5,14.7,5,20.6c0.4,0.7,0.9,1.5,1.4,2.2c1.7,2.4,3.3,4.7,4.7,7.3
		c6.2,11.1,9.6,23.2,9.6,36c0,0.3,0,0.6,0,1c0,0.3,0,0.6,0,1c0,12.8-3.4,25-9.6,36c-1.4,2.5-3,4.9-4.7,7.3c-0.5,0.7-1,1.4-1.4,2.2
		c-3.6,5.9-5.5,13.1-5,20.6c1.1,17.4,14.8,31.6,31.9,32.8c20.1,1.4,36.8-14.8,36.8-35.1c0-6.6-1.8-12.8-4.9-18
		c-0.5-0.8-1-1.7-1.6-2.5c-2.2-3.1-4.3-6.3-6.1-9.7c-5.4-10.4-8.4-21.8-8.4-33.7c0-0.3,0-0.7,0-1c0-0.3,0-0.7,0-1
		c0-11.9,3-23.3,8.4-33.7C329.2,126.9,331.3,123.7,333.5,120.6z"/>
	<linearGradient id="SVGID_5_" gradientUnits="userSpaceOnUse" x1="-0.5374" y1="160.9178" x2="440.3922" y2="169.2688">
		<stop  offset="0" style="stop-color:#9F66A9"/>
		<stop  offset="0.25" style="stop-color:#6F2C90"/>
		<stop  offset="0.4036" style="stop-color:#662E91"/>
		<stop  offset="0.654" style="stop-color:#4E3594"/>
		<stop  offset="0.9686" style="stop-color:#263F98"/>
		<stop  offset="1" style="stop-color:#224099"/>
	</linearGradient>
	<path class="st4" d="M242.9,55.7c0.5-0.7,1-1.4,1.4-2.2c3.6-5.9,5.5-13.1,5-20.6c-1.1-17.4-14.8-31.6-31.9-32.8
		c-20.1-1.4-36.8,14.8-36.8,35.1c0,6.6,1.8,12.8,4.9,18c0.5,0.8,1,1.7,1.6,2.5c2.2,3.1,4.3,6.3,6.1,9.7c5.4,10.4,8.4,21.8,8.4,33.7
		c0,0.3,0,0.7,0,1c0,0.3,0,0.7,0,1c0,11.9-3,23.3-8.4,33.7c-1.8,3.4-3.9,6.6-6.1,9.7c-0.6,0.8-1.1,1.6-1.6,2.5
		c-2.8,4.8-4.5,10.3-4.8,16.2c0,0.3,0,0.6,0,1c0,0.3,0,0.5,0,0.8c0,0,0,0.1,0,0.1c0,0,0,0.1,0,0.1c0,0.3,0,0.5,0,0.8
		c0,0.3,0,0.6,0,1c0.3,5.9,2,11.4,4.8,16.2c0.5,0.8,1,1.7,1.6,2.5c2.2,3.1,4.3,6.3,6.1,9.7c5.4,10.4,8.4,21.8,8.4,33.7
		c0,0.3,0,0.7,0,1c0,0.3,0,0.7,0,1c0,11.9-3,23.3-8.4,33.7c-1.8,3.4-3.9,6.6-6.1,9.7c-0.6,0.8-1.1,1.6-1.6,2.5
		c-3.1,5.3-4.9,11.4-4.9,18c0,20.2,16.7,36.5,36.8,35.1c17.1-1.2,30.8-15.4,31.9-32.8c0.5-7.6-1.5-14.7-5-20.6
		c-0.4-0.7-0.9-1.5-1.4-2.2c-1.7-2.4-3.3-4.7-4.7-7.3c-6.2-11.1-9.6-23.2-9.6-36c0-0.3,0-0.6,0-1c0-0.3,0-0.6,0-1
		c0-12.8,3.4-25,9.6-36c1.4-2.5,3-4.9,4.7-7.3c0.5-0.7,1-1.4,1.4-2.2c3.3-5.4,5.1-11.7,5.1-18.6c0-6.8-1.8-13.2-5.1-18.6
		c-0.4-0.7-0.9-1.5-1.4-2.2c-1.7-2.4-3.3-4.7-4.7-7.3c-6.2-11.1-9.6-23.2-9.6-36c0-0.3,0-0.6,0-1c0-0.3,0-0.6,0-1
		c0-12.8,3.4-25,9.6-36C239.6,60.5,241.2,58.1,242.9,55.7z"/>
</g>
</svg>
