<?xml version="1.0" encoding="utf-8"?>
<!-- Generator: Adobe Illustrator 23.0.1, SVG Export Plug-In . SVG Version: 6.00 Build 0)  -->
<svg version="1.1" id="Layer_1" xmlns="http://www.w3.org/2000/svg" xmlns:xlink="http://www.w3.org/1999/xlink" x="0px" y="0px"
	 viewBox="0 0 875 169" style="enable-background:new 0 0 875 169;" xml:space="preserve">
<style type="text/css">
	.st0{fill:#9F66A9;}
	.st1{fill:none;stroke:#224099;stroke-miterlimit:10;stroke-dasharray:11.9991;}
	.st2{fill:#A1D8D9;}
</style>
<g>
	<circle class="st0" cx="827.8" cy="112.7" r="5.4"/>
	<circle class="st0" cx="494.2" cy="36.1" r="5.4"/>
	<circle class="st0" cx="15.9" cy="67.9" r="15.6"/>
	<line class="st1" x1="42.2" y1="90.3" x2="483.2" y2="11"/>
	<path class="st2" d="M56.7,112.7H19.9c-2.2,0-4-1.8-4-4V71.9c0-2.2,1.8-4,4-4h36.8c2.2,0,4,1.8,4,4v36.8
		C60.7,110.9,58.9,112.7,56.7,112.7z"/>
	<line class="st1" x1="483.2" y1="11" x2="855.5" y2="140"/>
	<path class="st2" d="M490.2,22.1h-14.1c-2.2,0-4-1.8-4-4V4c0-2.2,1.8-4,4-4h14.1c2.2,0,4,1.8,4,4v14.1
		C494.2,20.3,492.4,22.1,490.2,22.1z"/>
	<path class="st2" d="M870.7,159.2h-30.5c-2.2,0-4-1.8-4-4v-30.5c0-2.2,1.8-4,4-4h30.5c2.2,0,4,1.8,4,4v30.5
		C874.7,157.4,872.9,159.2,870.7,159.2z"/>
</g>
</svg>
