<?xml version="1.0" encoding="utf-8"?>
<!-- Generator: Adobe Illustrator 23.0.1, SVG Export Plug-In . SVG Version: 6.00 Build 0)  -->
<svg version="1.1" id="Layer_1" xmlns="http://www.w3.org/2000/svg" xmlns:xlink="http://www.w3.org/1999/xlink" x="0px" y="0px"
	 viewBox="0 0 1085 190" style="enable-background:new 0 0 1085 190;" xml:space="preserve">
<style type="text/css">
	.st0{fill:#9F66A9;}
	.st1{fill:none;stroke:#224099;stroke-miterlimit:10;stroke-dasharray:11.9991;}
	.st2{fill:#A1D8D9;}
</style>
<g>
	<circle class="st0" cx="865.9" cy="5.8" r="5.4"/>
	<circle class="st0" cx="1066.8" cy="34.4" r="17.9"/>
	<circle class="st0" cx="226.1" cy="184.2" r="5.4"/>
	<circle class="st0" cx="15.9" cy="101.9" r="15.6"/>
	<polyline class="st1" points="1026.2,62.1 829.1,34.4 214.6,163.9 31.6,121.6 	"/>
	<path class="st2" d="M1056,72.9h-30.5c-2.2,0-4-1.8-4-4V38.4c0-2.2,1.8-4,4-4h30.5c2.2,0,4,1.8,4,4v30.5
		C1060,71.1,1058.2,72.9,1056,72.9z"/>
	<path class="st2" d="M49.2,140.6H18.7c-2.2,0-4-1.8-4-4v-30.5c0-2.2,1.8-4,4-4h30.5c2.2,0,4,1.8,4,4v30.5
		C53.2,138.8,51.4,140.6,49.2,140.6z"/>
	<path class="st2" d="M224.1,173.3h-14.9c-1.1,0-2-0.9-2-2v-14.9c0-1.1,0.9-2,2-2h14.9c1.1,0,2,0.9,2,2v14.9
		C226.1,172.4,225.2,173.3,224.1,173.3z"/>
</g>
</svg>
