<?xml version="1.0" encoding="utf-8"?>
<!-- Generator: Adobe Illustrator 23.0.1, SVG Export Plug-In . SVG Version: 6.00 Build 0)  -->
<svg version="1.1" id="Layer_1" xmlns="http://www.w3.org/2000/svg" xmlns:xlink="http://www.w3.org/1999/xlink" x="0px" y="0px"
	 viewBox="0 0 760 140" style="enable-background:new 0 0 760 140;" xml:space="preserve">
<style type="text/css">
	.st0{fill:#9F66A9;}
	.st1{fill:none;stroke:#224099;stroke-width:0.867;stroke-miterlimit:10;stroke-dasharray:10.4028;}
	.st2{fill:#A1D8D9;}
</style>
<g>
	<circle class="st0" cx="718.4" cy="99.5" r="4.7"/>
	<circle class="st0" cx="429.2" cy="33.1" r="4.7"/>
	<circle class="st0" cx="14.5" cy="60.6" r="13.5"/>
	<line class="st1" x1="37.4" y1="80.1" x2="419.7" y2="11.3"/>
	<path class="st2" d="M49.4,99.5H18.5c-2.2,0-4-1.8-4-4V64.6c0-2.2,1.8-4,4-4h30.9c2.2,0,4,1.8,4,4v30.9
		C53.4,97.7,51.6,99.5,49.4,99.5z"/>
	<line class="st1" x1="419.7" y1="11.3" x2="742.5" y2="123.1"/>
	<path class="st2" d="M425.3,20.9h-11.1c-2.2,0-4-1.8-4-4V5.8c0-2.2,1.8-4,4-4h11.1c2.2,0,4,1.8,4,4v11.1
		C429.3,19.1,427.5,20.9,425.3,20.9z"/>
	<path class="st2" d="M755.1,139.8h-25.4c-2.2,0-4-1.8-4-4v-25.4c0-2.2,1.8-4,4-4h25.4c2.2,0,4,1.8,4,4v25.4
		C759.1,138,757.3,139.8,755.1,139.8z"/>
</g>
</svg>
