<?xml version="1.0" encoding="utf-8"?>
<!-- Generator: Adobe Illustrator 23.0.1, SVG Export Plug-In . SVG Version: 6.00 Build 0)  -->
<svg version="1.1" id="Layer_1" xmlns="http://www.w3.org/2000/svg" xmlns:xlink="http://www.w3.org/1999/xlink" x="0px" y="0px"
	 viewBox="0 0 46 75" style="enable-background:new 0 0 46 75;" xml:space="preserve">
<style type="text/css">
	.st0{fill:#A2D9DA;}
	.st1{fill:#FFFFFF;}
</style>
<g>
	<g>
		<path class="st0" d="M17.4,34.7C7.8,34.7,0,26.9,0,17.4S7.8,0,17.4,0s17.4,7.8,17.4,17.4S26.9,34.7,17.4,34.7z M17.4,1.4
			c-8.8,0-16,7.2-16,16s7.2,16,16,16s16-7.2,16-16S26.2,1.4,17.4,1.4z"/>
	</g>
	<g>
		<path class="st1" d="M27.2,75c-1.1-0.1-2.3-0.2-3.4-0.4c-3.9-0.5-7-2.4-9.3-5.6c-2-2.7-3.3-5.8-4.7-8.8c-1.2-2.5-2.4-5.1-3.8-7.5
			c-0.7-1.2-1.6-2.2-2.5-3.3c-1.1-1.3-2.2-2.7-3.3-4c-0.3-0.3-0.2-0.5,0-0.9c2.2-2.8,5.6-3.3,8.5-1.2c1.6,1.1,2.7,2.7,3.7,4.3
			c0.1,0.2,0.3,0.4,0.5,0.7c0-0.4,0.1-0.6,0.1-0.8c0-7.3,0-14.6,0-21.9c0-1.3,0-2.7,0.2-4c0.3-2,1.9-3.4,3.9-3.5
			c2.1-0.1,3.7,1,4.2,3.1c0.3,1.1,0.4,2.2,0.4,3.4c0,4.3,0,8.7,0,13c0,0.2,0,0.5,0.1,0.8c1.1-1.9,2.8-2.7,4.9-2.2
			c2.1,0.5,3.1,2,3.5,4.1c1.3-1.7,2.8-2.7,4.8-2c1.2,0.4,2.1,1.1,2.8,2.1c0.7,1,0.6,2.2,0.5,3.5c0.5-0.4,0.9-0.9,1.4-1.2
			c1.5-0.9,4.2-0.4,5.2,1c0.4,0.5,0.7,1.2,0.7,1.8c0.1,5.5,0.3,10.9,0.1,16.4c-0.1,4.8-2.9,8.2-6.9,10.6c-2.2,1.3-4.6,2.1-7.2,2.3
			c-0.1,0-0.3,0.1-0.4,0.1C29.9,75,28.6,75,27.2,75z"/>
	</g>
</g>
</svg>
