<?xml version="1.0" encoding="utf-8"?>
<!-- Generator: Adobe Illustrator 23.0.1, SVG Export Plug-In . SVG Version: 6.00 Build 0)  -->
<svg version="1.1" id="Layer_1" xmlns="http://www.w3.org/2000/svg" xmlns:xlink="http://www.w3.org/1999/xlink" x="0px" y="0px"
	 viewBox="0 0 190 200" style="enable-background:new 0 0 190 200;" xml:space="preserve">
<style type="text/css">
	.st0{fill:#9F66A9;}
	.st1{fill:#A2D9DA;}
</style>
<g>
	<g>
		<path class="st0" d="M92.8,200c-9.4,0-18.9-1.5-28.2-4.4c-23.6-7.5-42.8-23.7-54.2-45.7C-13.1,104.5,4.7,48.5,50,25
			c45.4-23.5,101.4-5.7,124.9,39.7c11.4,22,13.5,47.1,6,70.7c-7.5,23.6-23.7,42.8-45.7,54.2l-1.2-2.3l1.2,2.3
			C121.9,196.5,107.4,200,92.8,200z M92.5,19.9c-13.5,0-27.2,3.1-40.1,9.8C9.7,51.9-7.1,104.7,15,147.5c10.7,20.7,28.9,36,51.2,43.1
			c22.3,7.1,45.9,5,66.7-5.7c20.7-10.7,36-28.9,43.1-51.1c7.1-22.2,5-45.9-5.7-66.6C154.7,37.1,124.1,19.9,92.5,19.9z"/>
	</g>
	<g>
		<g>
			<path class="st1" d="M190,59.4c-7.3-11.9-16.3-22.4-27-30.9c-10.6-8.5-22.8-15-35.7-19.1c-12.9-4.1-26.6-5.8-40.2-5
				C73.4,5.1,59.9,8.5,47.1,14c5.9-3.7,12.3-6.6,19-8.8c6.7-2.2,13.6-3.8,20.6-4.5c14-1.6,28.5-0.1,42,4.2
				c13.5,4.3,26.1,11.4,36.7,20.8c5.3,4.7,10,9.9,14.2,15.6C183.7,46.9,187.3,53,190,59.4z"/>
		</g>
	</g>
</g>
</svg>
