<?xml version="1.0" encoding="iso-8859-1"?>
<!-- Generator: Adobe Illustrator 22.0.0, SVG Export Plug-In . SVG Version: 6.00 Build 0)  -->
<svg xmlns="http://www.w3.org/2000/svg" xmlns:xlink="http://www.w3.org/1999/xlink" version="1.1" id="Layer_1" x="0px" y="0px" viewBox="0 0 59.998 59.998" style="enable-background:new 0 0 59.998 59.998;" xml:space="preserve" width="512" height="512">
<g id="_x31_3-Info_Box">
	<path d="M1.03,60c-0.266,0-0.526-0.106-0.718-0.303c-0.268-0.276-0.354-0.68-0.221-1.041l3.651-9.958   c0.58-1.582,0.472-3.33-0.296-4.795c-2.684-5.117-3.82-10.899-3.286-16.724C1.471,12.872,13.264,1.229,27.591,0.096l0,0   c8.812-0.698,17.434,2.471,23.653,8.691c6.22,6.22,9.387,14.842,8.689,23.655c-1.124,14.194-12.648,25.975-26.805,27.401   c-5.798,0.585-11.572-0.49-16.699-3.105c-1.369-0.698-3.021-0.811-4.534-0.307l-10.55,3.517C1.243,59.983,1.136,60,1.03,60z    M13.81,54.122c1.228,0,2.442,0.281,3.529,0.836c4.784,2.44,10.175,3.442,15.589,2.896c13.21-1.331,23.963-12.323,25.012-25.569   c0.652-8.228-2.304-16.277-8.109-22.083c-5.805-5.806-13.855-8.763-22.082-8.111l0,0C14.379,3.148,3.374,14.012,2.152,27.362   C1.653,32.801,2.714,38.2,5.217,42.974c1.03,1.964,1.177,4.301,0.403,6.412l-2.937,8.008l8.58-2.86   C12.092,54.258,12.955,54.122,13.81,54.122z"/>
	<path d="M30.03,55c-13.785,0-25-11.215-25-25s11.215-25,25-25s25,11.215,25,25C55.03,43.785,43.815,55,30.03,55z M30.03,7   c-12.682,0-23,10.318-23,23s10.318,23,23,23s23-10.318,23-23S42.712,7,30.03,7z"/>
	<path d="M30.03,20c-2.206,0-4-1.794-4-4s1.794-4,4-4s4,1.794,4,4S32.236,20,30.03,20z M30.03,14c-1.103,0-2,0.897-2,2s0.897,2,2,2   s2-0.897,2-2S31.133,14,30.03,14z"/>
	<path d="M30.03,48c-2.206,0-4-1.794-4-4V27c0-2.206,1.794-4,4-4s4,1.794,4,4v17C34.03,46.206,32.236,48,30.03,48z M30.03,25   c-1.103,0-2,0.897-2,2v17c0,1.103,0.897,2,2,2s2-0.897,2-2V27C32.03,25.897,31.133,25,30.03,25z"/>
</g>

</svg>
